# xmcd
#
# Track frame offsets: 
#        150
#        17022
#        31320
#        46140
#        67328
#        91793
#        104464
#        125172
#        136723
#        148911
#        161188
#        174747
#        198522
#        211618
#
# Disc length: 3102 seconds
#
# Revision: 2
# Processed by: cddbd v1.5.2PL0 Copyright (c) Steve Scherf et al.
# Submitted via: ExactAudioCopyFreeDBPlugin 1.0
#
DISCID=cb0c1c0e
DTITLE=Various Artist - Summer Jazz
DYEAR=2001
DGENRE=Jazz
TTITLE0=Duke Ellington - Satin Doll
TTITLE1=Ella Fitzgerald - These Foolish Things
TTITLE2=Mongo Santamaria - Watermelon Man
TTITLE3=Chet Baker - Was Too Good To Be
TTITLE4=Ray Bryant - Autumn Leaves
TTITLE5=Aretha Franklin - Today I Sing The Blues
TTITLE6=Toots Thielemens - Bluesette
TTITLE7=Oscar Brown - Work Song
TTITLE8=Teddy Wilson - Misty
TTITLE9=Mel Tormé - Strangers In The Night
TTITLE10=The Jay and Kai Trombone Octet - Night In Tunisia
TTITLE11=Paul desmond - Nuages
TTITLE12=Neal Hefti - Girl Talk
TTITLE13=Marion Williams - Didn't Rain
EXTD=
EXTT0=
EXTT1=
EXTT2=
EXTT3=
EXTT4=
EXTT5=
EXTT6=
EXTT7=
EXTT8=
EXTT9=
EXTT10=
EXTT11=
EXTT12=
EXTT13=
PLAYORDER=
